<svg xmlns="http://www.w3.org/2000/svg" width="528.972" height="460.367"
  viewBox="0 0 528.972 460.367">
  <path id="jelly-white"
    d="M-3838.992,452.155a16.668,16.668,0,0,1,5.9-22.836c.448-.268,50.237-30.627,112.1-117.871,23.609-33.3,45.832-56.168,65.008-71.863-3.784-4.433-7.5-8.97-11.089-13.541,6.213-2.779,12.441-5.252,18.515-7.351,2.748,3.145,5.588,6.136,8.488,8.941,27.038-18.476,45.434-21.688,48.82-22.141a16.69,16.69,0,0,1,18.763,14.315,16.678,16.678,0,0,1-14.093,18.711c-1.35.248-48.635,9.656-107.166,92.208-66.5,93.785-120.136,126-122.387,127.326a16.629,16.629,0,0,1-8.462,2.314A16.691,16.691,0,0,1-3838.992,452.155Zm-125.508-100.2a16.686,16.686,0,0,1-15.457-17.83,16.689,16.689,0,0,1,17.847-15.441c1.049.072,108.424,6.539,184.05-64.479,32.445-30.468,62.809-49.951,88.183-62.407-1.368-2.933-2.664-6.007-3.864-9.17,6.57-1.9,13.108-3.873,19.435-5.866q1.263,3.479,2.738,6.845c31.449-12.694,51.856-13.779,53.426-13.844a16.688,16.688,0,0,1,17.368,15.977,16.682,16.682,0,0,1-15.893,17.346c-1.041.063-62.915,4.421-138.526,75.424-71.813,67.439-165.2,73.77-197.71,73.771C-3959.556,352.278-3963.655,352.013-3964.5,351.953Zm392.644-61.111c-5.893,0-12.018-.416-18.5-.856h-.02l-.036,0-.162-.011c-2.008-.136-3.978-.269-6.012-.4-6.16-1.31-14.215-6.046-23.939-14.077-2.51-2.073-5.161-4.4-7.88-6.9a156.906,156.906,0,0,1,27.122-16.731,49.672,49.672,0,0,0,13.615,2.027h.005a34.489,34.489,0,0,0,21.523-7.078c13.506-10.372,20.6-26.078,20.521-45.42-.089-21.2-9.08-45.8-26-71.159-12.962-19.424-26.772-34.464-41.047-44.7-12.526-8.983-24.8-13.73-35.5-13.73A26.666,26.666,0,0,0-3664.21,76.6c-5.706,4.146-10.633,13.089-13.872,25.181a122.943,122.943,0,0,0-3.752,34.325c17.576-5.587,27.574-9.451,27.82-9.547a16.7,16.7,0,0,1,21.624,9.464,16.671,16.671,0,0,1-9.463,21.6c-2.637,1.031-65.645,25.429-158.287,41.406-85.357,14.719-121.559,44.179-121.915,44.475a16.719,16.719,0,0,1-10.724,3.875,16.646,16.646,0,0,1-12.758-5.9,16.62,16.62,0,0,1,1.868-23.4c1.685-1.441,42.386-35.461,137.85-51.923a960.9,960.9,0,0,0,102.313-23.489c-.751-5.577-1.308-11.3-1.662-17.105a253.869,253.869,0,0,1,.135-33.1,195.118,195.118,0,0,1,3.651-27,56.135,56.135,0,0,1,6.967-13.818A89.218,89.218,0,0,1-3680.359,35.6a120.977,120.977,0,0,1,22.312-15.89,162.761,162.761,0,0,1,31.721-13.358A137.9,137.9,0,0,1-3585.964,0a114.787,114.787,0,0,1,29.431,3.789,116.881,116.881,0,0,1,29.552,12.481,134.993,134.993,0,0,1,14.591,10.024,157.671,157.671,0,0,1,14.342,12.824,190.763,190.763,0,0,1,14,15.834c4.653,5.87,9.218,12.281,13.567,19.053a121.078,121.078,0,0,1,15.256,34.69,131.221,131.221,0,0,1,4.17,36.057c-.462,22.677-6.417,46.427-17.221,68.68.592-14.585-.886-30.854-4.391-48.355a13.163,13.163,0,0,0-12.871-10.556,13.306,13.306,0,0,0-2.592.258,13.057,13.057,0,0,0-8.358,5.59,13.044,13.044,0,0,0-1.952,9.858c8.014,40.029,3.982,70-12.326,91.637a77.726,77.726,0,0,1-9.553,10.466,93.629,93.629,0,0,1-11.932,9.22,89.945,89.945,0,0,1-20.714,7.425,86.981,86.981,0,0,1-18.866,1.867Zm1.468-268.215a21.113,21.113,0,0,0-6.567,4.228,20.522,20.522,0,0,0-4.537,6.28,19.664,19.664,0,0,0-1.835,7.724,19.155,19.155,0,0,0,1.371,7.776,19.265,19.265,0,0,0,4.21,6.4,19.921,19.921,0,0,0,6.432,4.351A20.629,20.629,0,0,0-3563.308,61h.068a21.118,21.118,0,0,0,8.029-1.573,21.082,21.082,0,0,0,6.666-4.333,20.5,20.5,0,0,0,4.535-6.418,19.652,19.652,0,0,0,1.727-7.822,19.155,19.155,0,0,0-1.517-7.769,19.289,19.289,0,0,0-4.31-6.3,19.9,19.9,0,0,0-6.428-4.21,20.64,20.64,0,0,0-7.833-1.521h-.068A21.174,21.174,0,0,0-3570.389,22.626Zm-48.776,14.4a10.809,10.809,0,0,0-3.29,2.132,10.712,10.712,0,0,0-2.321,3.153,10.288,10.288,0,0,0-1.015,3.865,9.608,9.608,0,0,0,.55,3.879,9.233,9.233,0,0,0,1.951,3.182,9.261,9.261,0,0,0,3.062,2.161,9.649,9.649,0,0,0,3.87.806h.043a10.361,10.361,0,0,0,3.93-.776,10.832,10.832,0,0,0,3.332-2.149,10.765,10.765,0,0,0,2.337-3.195,10.227,10.227,0,0,0,1-3.908,9.565,9.565,0,0,0-.593-3.894,9.2,9.2,0,0,0-1.993-3.165,9.272,9.272,0,0,0-3.08-2.119,9.713,9.713,0,0,0-3.81-.764h-.045A10.371,10.371,0,0,0-3619.165,37.03Z"
    transform="translate(3980)" fill="#0a0a0a" />
</svg>